<svg id="Layer_1" enable-background="new 0 0 510.562 510.562" height="512" viewBox="0 0 510.562 510.562" width="512" xmlns="http://www.w3.org/2000/svg"><g><path d="m449.051 409.844c-4.506-8.586-17.787-1.619-13.283 6.969l12.61 24.037-53.384 4.156c-6.178.481-11.915 3.552-15.742 8.425l-33.055 42.102-42.586-81.181c8.212-3.288 17.159-3.21 25.857-3.259 28.258-.162 43.451-9.006 57.688-33.462 4.646-7.981 9.253-15.863 16.792-21.474l13.172 25.109c4.378 8.345 17.776 1.597 13.283-6.969l-13.729-26.17c23.968-15.979 33.316-27.878 33.485-57.661.09-15.555 2.896-26.601 10.681-40.158 14.297-24.893 14.315-43.044 0-67.969-7.749-13.495-10.592-24.505-10.681-40.16-.163-28.257-9.023-43.435-33.481-57.658-13.517-7.858-21.614-15.917-29.522-29.505-14.22-24.423-29.393-33.299-57.688-33.462-15.562-.088-26.622-2.895-40.189-10.676-52.183-29.92-61.372 11.452-108.187 10.676-28.257.162-43.451 9.006-57.688 33.462-7.867 13.513-15.931 21.601-29.522 29.504-51.137 29.429-20.542 58.244-44.163 97.821-14.295 24.894-14.314 43.041-.001 67.967 24.463 42.931-8.312 62.653 44.167 97.821l-45.033 85.847c-4.963 9.264 1.66 21.011 11.938 21.812l53.612 4.174c2.005.156 3.867 1.152 5.108 2.733l33.196 42.28c6.524 8.309 19.878 6.98 24.804-2.215l42.783-81.557c26.033 14.922 43.942 14.905 69.973 0l42.814 81.615c4.926 9.196 18.174 10.561 24.774 2.157l33.195-42.28c1.241-1.581 3.103-2.577 5.107-2.733l53.612-4.174c10.198-.795 16.906-12.541 11.97-21.755zm-284.687 85.689-33.055-42.101c-3.826-4.874-9.563-7.944-15.742-8.426l-53.383-4.156 44.428-84.693c7.54 5.611 12.146 13.492 16.793 21.473 14.218 24.424 29.393 33.299 57.688 33.462 8.699.049 17.645-.029 25.857 3.259zm90.916-76.541c-24.055-1.876-32.756-23.238-74.102-22.9-23.045-.132-33.212-6.085-44.81-26.009-9.143-15.704-19.167-25.751-34.945-34.924-19.924-11.584-25.891-21.738-26.023-44.778-.103-18.084-3.629-31.794-12.673-47.544-11.687-20.351-11.687-32.676 0-53.027 9.01-15.692 12.569-29.371 12.673-47.545.132-23.041 6.099-33.193 26.023-44.777 15.71-9.135 25.763-19.152 34.946-34.925 11.597-19.923 21.766-25.877 44.81-26.009 49.375 1.754 57.249-38.456 100.638-12.664 15.7 9.005 29.39 12.56 47.567 12.664 23.044.132 33.212 6.086 44.81 26.009 23.069 43.452 61.588 30.312 60.968 79.702.103 18.084 3.629 31.794 12.674 47.544 11.687 20.354 11.687 32.676-.001 53.029-9.01 15.691-12.569 29.37-12.673 47.542-.13 23.041-6.099 33.195-26.022 44.778-15.125 8.794-26.137 19.79-34.946 34.925-11.597 19.923-21.766 25.877-44.81 26.009-18.089.103-31.809 3.626-47.566 12.665-9.179 5.264-17.847 10.235-26.538 10.235z"/><path d="m402.198 216.324c1.003-118.88-138.606-189.645-233.716-118.395-7.816 5.74 1.059 17.827 8.877 12.092 85.392-63.977 210.758-.402 209.838 106.304-6.63 174.645-257.224 174.615-263.835-.003 0-29.3 9.465-57.065 27.372-80.293 5.921-7.68-5.958-16.836-11.88-9.158-74.465 94.678-3.994 237.297 116.427 236.286 81.01.001 146.917-65.869 146.917-146.833z"/><path d="m210.957 287.118c8.977 8.973 24.213 8.993 33.21 0l95.908-95.85c8.979-8.974 9-24.209 0-33.203-9.158-9.153-24.055-9.151-33.211 0l-79.302 79.254-27.754-27.737c-9.156-9.148-24.054-9.149-33.21.001-8.979 8.974-9 24.209 0 33.203zm-33.756-66.924c4.001-3.251 8.003-3.251 12.004-.001l33.055 33.035c2.929 2.928 7.675 2.928 10.604 0l84.604-84.553c3.255-3.253 8.75-3.25 12.005.001 3.312 3.995 3.311 7.989-.001 11.983l-95.908 95.85c-4.001 3.312-8.002 3.312-12.003 0l-44.359-44.332c-3.312-3.995-3.312-7.989-.001-11.983z"/><path d="m255.28 53.721c9.652 0 9.668-15 0-15-9.651 0-9.667 15 0 15z"/><path d="m170.179 76.511c9.652 0 9.668-15 0-15-9.652 0-9.668 15 0 15z"/><path d="m107.88 138.772c9.652 0 9.668-15 0-15-9.652 0-9.668 15 0 15z"/><path d="m85.077 208.823c-9.652 0-9.668 15 0 15 9.652 0 9.668-15 0-15z"/><path d="m107.88 293.874c-9.652 0-9.668 15 0 15 9.652 0 9.668-15 0-15z"/><path d="m170.179 356.136c-9.652 0-9.668 15 0 15 9.651 0 9.667-15 0-15z"/><path d="m255.28 378.925c-9.652 0-9.668 15 0 15 9.652 0 9.668-15 0-15z"/><path d="m340.382 356.136c-9.652 0-9.668 15 0 15 9.652 0 9.668-15 0-15z"/><path d="m402.681 293.874c-9.652 0-9.668 15 0 15 9.652 0 9.668-15 0-15z"/><path d="m425.484 223.823c9.652 0 9.668-15 0-15-9.652 0-9.668 15 0 15z"/><path d="m402.681 138.772c9.652 0 9.668-15 0-15-9.652 0-9.668 15 0 15z"/><path d="m340.382 76.511c9.652 0 9.668-15 0-15-9.652 0-9.667 15 0 15z"/></g></svg>