<svg width="160" height="162" viewBox="0 0 160 162" fill="none" xmlns="http://www.w3.org/2000/svg">
<path d="M51.7078 41.3466C51.9158 35.1185 58.8497 31.509 64.0707 34.9109L127.626 76.3221C132.756 79.6642 132.383 87.2941 126.953 90.1209L60.8654 124.524C55.4351 127.351 48.9715 123.28 49.1758 117.161L51.7078 41.3466Z" fill="#EB5312"/>
<path d="M64.106 85H55.8218V83.3564L59.7314 79.1895C60.2682 78.6029 60.6639 78.091 60.9185 77.6538C61.1785 77.2166 61.3086 76.8016 61.3086 76.4087C61.3086 75.8719 61.173 75.4513 60.9019 75.147C60.6307 74.8371 60.2433 74.6821 59.7397 74.6821C59.1974 74.6821 58.7686 74.8703 58.4531 75.2466C58.1432 75.6174 57.9883 76.1071 57.9883 76.7158H55.5811C55.5811 75.9798 55.7554 75.3075 56.104 74.6987C56.4582 74.09 56.9562 73.6141 57.5981 73.271C58.2401 72.9224 58.9678 72.748 59.7812 72.748C61.0264 72.748 61.992 73.0469 62.6782 73.6445C63.37 74.2422 63.7158 75.0861 63.7158 76.1763C63.7158 76.7739 63.5609 77.3826 63.251 78.0024C62.9411 78.6222 62.4098 79.3444 61.6572 80.1689L58.9097 83.0659H64.106V85ZM65.8408 85V72.9141H69.5596C70.6221 72.9141 71.5711 73.1548 72.4067 73.6362C73.2479 74.1121 73.9036 74.7928 74.374 75.6782C74.8444 76.5581 75.0796 77.5597 75.0796 78.6831V79.2393C75.0796 80.3626 74.8472 81.3615 74.3823 82.2358C73.923 83.1102 73.2728 83.7881 72.4316 84.2695C71.5905 84.751 70.6414 84.9945 69.5845 85H65.8408ZM68.3311 74.9312V82.9995H69.5347C70.5086 82.9995 71.2529 82.6813 71.7676 82.0449C72.2822 81.4085 72.5451 80.4982 72.5562 79.314V78.6748C72.5562 77.4463 72.3016 76.5166 71.7925 75.8857C71.2834 75.2493 70.5391 74.9312 69.5596 74.9312H68.3311ZM87.3979 81.8291C87.3979 81.3587 87.2319 80.999 86.8999 80.75C86.5679 80.4954 85.9702 80.2298 85.1069 79.9531C84.2437 79.6709 83.5602 79.3942 83.0566 79.123C81.6842 78.3815 80.998 77.3826 80.998 76.1265C80.998 75.4735 81.1807 74.8924 81.5459 74.3833C81.9167 73.8687 82.4451 73.4674 83.1313 73.1797C83.8231 72.8919 84.5978 72.748 85.4556 72.748C86.3188 72.748 87.0881 72.9058 87.7632 73.2212C88.4383 73.5311 88.9613 73.971 89.332 74.541C89.7083 75.111 89.8965 75.7585 89.8965 76.4834H87.4062C87.4062 75.93 87.2319 75.5011 86.8833 75.1968C86.5347 74.8869 86.0449 74.7319 85.4141 74.7319C84.8053 74.7319 84.3322 74.862 83.9946 75.1221C83.6571 75.3766 83.4883 75.7142 83.4883 76.1348C83.4883 76.5277 83.6847 76.8569 84.0776 77.1226C84.4761 77.3882 85.0599 77.6372 85.8291 77.8696C87.2458 78.2957 88.2778 78.8242 88.9253 79.4551C89.5728 80.0859 89.8965 80.8717 89.8965 81.8125C89.8965 82.8584 89.5008 83.6802 88.7095 84.2778C87.9181 84.87 86.8529 85.166 85.5137 85.166C84.584 85.166 83.7373 84.9972 82.9736 84.6597C82.21 84.3166 81.6261 83.849 81.2222 83.2568C80.8237 82.6647 80.6245 81.9785 80.6245 81.1982H83.123C83.123 82.5319 83.9199 83.1987 85.5137 83.1987C86.1058 83.1987 86.5679 83.0798 86.8999 82.8418C87.2319 82.5983 87.3979 82.2607 87.3979 81.8291ZM94.3042 73.8105V76.0186H95.8398V77.7783H94.3042V82.2607C94.3042 82.5928 94.3678 82.8307 94.4951 82.9746C94.6224 83.1185 94.8659 83.1904 95.2256 83.1904C95.4912 83.1904 95.7264 83.1711 95.9312 83.1323V84.9502C95.4608 85.0941 94.9766 85.166 94.4785 85.166C92.7962 85.166 91.9385 84.3166 91.9053 82.6177V77.7783H90.5938V76.0186H91.9053V73.8105H94.3042ZM96.5537 80.4263C96.5537 79.5353 96.7253 78.7412 97.0684 78.0439C97.4115 77.3467 97.904 76.8071 98.5459 76.4253C99.1934 76.0435 99.9432 75.8525 100.795 75.8525C102.007 75.8525 102.995 76.2233 103.759 76.9648C104.528 77.7064 104.957 78.7135 105.045 79.9863L105.062 80.6006C105.062 81.9785 104.677 83.0853 103.908 83.9209C103.139 84.751 102.107 85.166 100.812 85.166C99.5171 85.166 98.4823 84.751 97.7075 83.9209C96.9383 83.0908 96.5537 81.9619 96.5537 80.5342V80.4263ZM98.9526 80.6006C98.9526 81.4528 99.1131 82.1058 99.4341 82.5596C99.755 83.0078 100.214 83.2319 100.812 83.2319C101.393 83.2319 101.847 83.0106 102.173 82.5679C102.5 82.1196 102.663 81.4058 102.663 80.4263C102.663 79.5907 102.5 78.9432 102.173 78.4839C101.847 78.0246 101.388 77.7949 100.795 77.7949C100.209 77.7949 99.755 78.0246 99.4341 78.4839C99.1131 78.9377 98.9526 79.6432 98.9526 80.6006ZM111.586 78.2681C111.26 78.2238 110.972 78.2017 110.723 78.2017C109.816 78.2017 109.221 78.5088 108.938 79.123V85H106.54V76.0186H108.806L108.872 77.0894C109.354 76.2648 110.02 75.8525 110.873 75.8525C111.138 75.8525 111.387 75.8885 111.62 75.9604L111.586 78.2681ZM116.716 85.166C115.399 85.166 114.326 84.762 113.496 83.9541C112.671 83.1462 112.259 82.0698 112.259 80.7251V80.4927C112.259 79.5907 112.433 78.7855 112.782 78.0771C113.13 77.3633 113.623 76.8154 114.259 76.4336C114.901 76.0462 115.632 75.8525 116.451 75.8525C117.679 75.8525 118.645 76.2399 119.348 77.0146C120.056 77.7894 120.41 78.8879 120.41 80.3101V81.2896H114.691C114.768 81.8761 115.001 82.3465 115.388 82.7007C115.781 83.0549 116.276 83.2319 116.874 83.2319C117.798 83.2319 118.52 82.8971 119.041 82.2275L120.219 83.5474C119.86 84.0565 119.373 84.4549 118.758 84.7427C118.144 85.0249 117.463 85.166 116.716 85.166ZM116.442 77.7949C115.966 77.7949 115.579 77.9554 115.28 78.2764C114.987 78.5973 114.799 79.0566 114.716 79.6543H118.053V79.4634C118.042 78.9321 117.898 78.5226 117.621 78.2349C117.344 77.9416 116.951 77.7949 116.442 77.7949Z" fill="white"/>
</svg>
