<svg id="Layer_5" enable-background="new 0 0 64 64" height="512" viewBox="0 0 64 64" width="512" xmlns="http://www.w3.org/2000/svg"><path d="m10 7h-2v2.414l2.293 2.293 1.414-1.414-1.707-1.707z"/><path d="m47 53h2v2h-2z"/><path d="m51 53h8v2h-8z"/><path d="m47 57h12v2h-12z"/><path d="m10 49c-2.757 0-5 2.243-5 5s2.243 5 5 5 5-2.243 5-5-2.243-5-5-5zm0 8c-1.654 0-3-1.346-3-3s1.346-3 3-3 3 1.346 3 3-1.346 3-3 3z"/><path d="m50.414 15h12.586v-14h-20v14h4.586l-2.898 2.898c-3.368-3.034-7.809-4.898-12.688-4.898s-9.32 1.864-12.688 4.898l-4-4c1.054-1.356 1.688-3.052 1.688-4.898 0-4.411-3.589-8-8-8s-8 3.589-8 8 3.589 8 8 8c1.846 0 3.542-.634 4.898-1.688l4 4c-1.956 2.172-3.415 4.79-4.208 7.688h-.69c-.552 0-1-.448-1-1v-2c0-1.654-1.346-3-3-3h-1.184c-.414-1.161-1.514-2-2.816-2-1.654 0-3 1.346-3 3s1.346 3 3 3c1.302 0 2.402-.839 2.816-2h1.184c.552 0 1 .448 1 1v2c0 1.654 1.346 3 3 3h.261c-.105.656-.174 1.323-.21 2h-6.235c-.414-1.161-1.514-2-2.816-2-1.654 0-3 1.346-3 3s1.346 3 3 3c1.302 0 2.402-.839 2.816-2h6.235c.036.677.105 1.344.21 2h-.261c-1.654 0-3 1.346-3 3v2c0 .552-.448 1-1 1h-1.184c-.414-1.161-1.514-2-2.816-2-1.654 0-3 1.346-3 3s1.346 3 3 3c1.302 0 2.402-.839 2.816-2h1.184c1.654 0 3-1.346 3-3v-2c0-.552.448-1 1-1h.69c.793 2.898 2.252 5.516 4.208 7.688l-2.241 2.241-1.203-1.203-1.273.596-.48-1.322h-5.402l-.479 1.321-1.273-.596-3.82 3.82.596 1.273-1.323.481v5.402l1.321.479-.596 1.273 3.82 3.82 1.273-.596.481 1.323h5.402l.479-1.321 1.273.596 3.82-3.82-.596-1.273 1.323-.481v-5.402l-1.321-.479.596-1.273-1.203-1.203 2.241-2.241c3.367 3.033 7.808 4.897 12.687 4.897s9.32-1.864 12.688-4.898l2.898 2.898h-4.586v7c0 3.859 3.141 7 7 7h6c3.859 0 7-3.141 7-7s-3.141-7-7-7h-5.586l-4.312-4.312c1.956-2.172 3.415-4.79 4.208-7.688h.69c.552 0 1 .448 1 1v2c0 1.654 1.346 3 3 3h1.184c.414 1.161 1.514 2 2.816 2 1.654 0 3-1.346 3-3s-1.346-3-3-3c-1.302 0-2.402.839-2.816 2h-1.184c-.552 0-1-.448-1-1v-2c0-1.654-1.346-3-3-3h-.261c.105-.656.174-1.323.21-2h6.235c.414 1.161 1.514 2 2.816 2 1.654 0 3-1.346 3-3s-1.346-3-3-3c-1.302 0-2.402.839-2.816 2h-6.235c-.036-.677-.105-1.344-.21-2h.261c1.654 0 3-1.346 3-3v-2c0-.552.448-1 1-1h1.184c.414 1.161 1.514 2 2.816 2 1.654 0 3-1.346 3-3s-1.346-3-3-3c-1.302 0-2.402.839-2.816 2h-1.184c-1.654 0-3 1.346-3 3v2c0 .552-.448 1-1 1h-.69c-.793-2.898-2.252-5.516-4.208-7.688zm7.733-6.267c.158-.171.311-.346.452-.534l2.4-3.2v6.587zm-1.147-1.733c-.939 1.252-2.435 2-4 2s-3.061-.748-4-2l-3-4h14zm-9.6 1.199c.141.188.294.363.452.534l-2.852 2.853v-6.587zm2.017 1.798c1.074.64 2.309 1.003 3.583 1.003s2.509-.363 3.583-1.003l3.003 3.003h-13.172zm-44.417 13.003c-.552 0-1-.448-1-1s.448-1 1-1 1 .448 1 1-.448 1-1 1zm0 20c-.552 0-1-.448-1-1s.448-1 1-1 1 .448 1 1-.448 1-1 1zm12 12.299-.823.3-.442.202-.427 1.031.561 1.198-1.838 1.838-1.198-.561-1.08.446-.454 1.247h-2.598l-.3-.823-.202-.442-1.031-.427-1.198.56-1.838-1.838.561-1.198-.446-1.08-1.247-.453v-2.598l.823-.3.442-.202.427-1.031-.56-1.198 1.838-1.838 1.198.561 1.08-.446.453-1.247h2.598l.3.823.202.442 1.031.427 1.198-.561 1.838 1.838-.561 1.198.446 1.08 1.247.454zm44 .701c0 2.757-2.243 5-5 5h-6c-2.757 0-5-2.243-5-5v-5h11c2.757 0 5 2.243 5 5zm-2-15c.552 0 1 .448 1 1s-.448 1-1 1-1-.448-1-1 .448-1 1-1zm0-20c.552 0 1 .448 1 1s-.448 1-1 1-1-.448-1-1 .448-1 1-1zm-49-6.09v-1.91h-2v1.91c-2.507-.424-4.486-2.403-4.91-4.91h1.91v-2h-1.91c.424-2.507 2.403-4.486 4.91-4.91v1.91h2v-1.91c2.507.423 4.486 2.403 4.91 4.91h-1.91v2h1.91c-.424 2.507-2.403 4.486-4.91 4.91zm-6 18.09c-.552 0-1-.448-1-1s.448-1 1-1 1 .448 1 1-.448 1-1 1zm15.301 10.263c.711-3.322 2.646-6.124 5.293-7.955l5.853 13.613c-2.313-.211-4.494-.883-6.448-1.93v-5.991h-2v4.717c-.985-.72-1.888-1.542-2.698-2.454zm6.699-18.263c0-3.309 2.691-6 6-6s6 2.691 6 6-2.691 6-6 6-6-2.691-6-6zm6 8c.12 0 .236.013.355.016l1.63 9.836-1.985 4.616-1.985-4.617 1.63-9.836c.119-.002.235-.015.355-.015zm3.448 6.449-1.031-6.222c1.14.214 2.229.576 3.247 1.068zm-6.896 0-2.216-5.154c1.018-.492 2.108-.854 3.247-1.068zm13.448 6.268v-4.717h-2v5.992c-1.954 1.047-4.134 1.719-6.448 1.93l5.853-13.613c2.647 1.831 4.582 4.633 5.293 7.955-.809.911-1.712 1.733-2.698 2.453zm18-14.717c.552 0 1 .448 1 1s-.448 1-1 1-1-.448-1-1 .448-1 1-1zm-13.771 10.275c-1.534-4.647-5.223-8.198-9.821-9.605 2.162-1.434 3.592-3.887 3.592-6.67 0-4.411-3.589-8-8-8s-8 3.589-8 8c0 2.783 1.43 5.236 3.592 6.669-4.598 1.407-8.287 4.958-9.821 9.605-1.746-2.669-2.771-5.852-2.771-9.274 0-9.374 7.626-17 17-17s17 7.626 17 17c0 3.422-1.025 6.605-2.771 9.275z"/><path d="m45 32c0 .939-.101 1.877-.299 2.787l1.953.426c.23-1.05.346-2.131.346-3.213 0-2.25-.486-4.413-1.444-6.43l-1.807.859c.83 1.747 1.251 3.621 1.251 5.571z"/><path d="m41.286 22.902c.506.516.972 1.077 1.384 1.669l1.641-1.143c-.476-.684-1.013-1.332-1.597-1.927z"/><path d="m17.04 33.094c.05.709.152 1.422.306 2.12l1.953-.428c-.132-.604-.221-1.221-.265-1.835z"/><path d="m19.291 29.254-1.955-.42c-.148.691-.25 1.404-.3 2.12l1.996.139c.043-.621.13-1.239.259-1.839z"/><path d="m17.935 26.778 1.875.695c.215-.577.473-1.146.769-1.688l-1.756-.957c-.343.627-.64 1.282-.888 1.95z"/></svg>